<svg xmlns="http://www.w3.org/2000/svg" viewBox="0 0 128 128">
  <defs>
    <linearGradient id="c" x1="0" x2="1" y1="0" y2="1">
      <stop offset="0%" stop-color="#00C4CC"/>
      <stop offset="100%" stop-color="#6A5ACD"/>
    </linearGradient>
  </defs>
  <rect width="128" height="128" rx="28" fill="url(#c)"/>
  <path d="M82 36c-11 0-22 8-29 20-5 8-8 17-8 27 0 11 7 19 18 19 13 0 25-9 31-23l-13-5c-4 9-10 14-17 14-5 0-8-3-8-9 0-6 2-13 6-20 4-8 10-13 16-13 4 0 7 2 9 6l12-7c-4-6-10-9-17-9z" fill="#fff"/>
</svg>
